<svg xmlns="http://www.w3.org/2000/svg" height="24" viewBox="0 -960 960 960" width="24"><path d="m438-262.694 212.153-212.153-43.384-43.383-169.384 169.384-84.77-84.769-42.768 42.768L438-262.694ZM252.309-100.001q-30.308 0-51.308-21t-21-51.308v-615.382q0-30.308 21-51.308t51.308-21h317.692l209.998 209.998v477.692q0 30.308-21 51.308t-51.308 21H252.309Zm287.692-520V-800H252.309q-4.616 0-8.463 3.846-3.846 3.847-3.846 8.463v615.382q0 4.616 3.846 8.463 3.847 3.846 8.463 3.846h455.382q4.616 0 8.463-3.846 3.846-3.847 3.846-8.463v-447.692H540.001ZM240-800v179.999V-800v640V-800Z"/></svg>